<svg width="42" height="42" viewBox="0 0 42 42" fill="none" xmlns="http://www.w3.org/2000/svg">
<circle cx="21" cy="21" r="21" fill="#F0F0F0"/>
<path d="M21 30C18.5 30 16.375 29.125 14.625 27.375C12.875 25.625 12 23.5 12 21C12 18.5 12.875 16.375 14.625 14.625C16.375 12.875 18.5 12 21 12C21.2333 12 21.4627 12.0083 21.688 12.025C21.9127 12.0417 22.1333 12.0667 22.35 12.1C21.6667 12.5833 21.121 13.2123 20.713 13.987C20.3043 14.7623 20.1 15.6 20.1 16.5C20.1 18 20.625 19.275 21.675 20.325C22.725 21.375 24 21.9 25.5 21.9C26.4167 21.9 27.2583 21.6957 28.025 21.287C28.7917 20.879 29.4167 20.3333 29.9 19.65C29.9333 19.8667 29.9583 20.0873 29.975 20.312C29.9917 20.5373 30 20.7667 30 21C30 23.5 29.125 25.625 27.375 27.375C25.625 29.125 23.5 30 21 30Z" fill="#333333"/>
</svg>
